<svg width="84" height="67" viewBox="0 0 84 67" fill="none" xmlns="http://www.w3.org/2000/svg">
<path d="M75.3333 0H8.66667C4.07084 0 0.333336 3.7375 0.333336 8.33333V58.3333C0.333336 62.9292 4.07084 66.6667 8.66667 66.6667H75.3333C79.9292 66.6667 83.6667 62.9292 83.6667 58.3333V8.33333C83.6667 3.7375 79.9292 0 75.3333 0ZM19.0833 12.5C20.7409 12.5 22.3306 13.1585 23.5028 14.3306C24.6749 15.5027 25.3333 17.0924 25.3333 18.75C25.3333 20.4076 24.6749 21.9973 23.5028 23.1694C22.3306 24.3415 20.7409 25 19.0833 25C17.4257 25 15.836 24.3415 14.6639 23.1694C13.4918 21.9973 12.8333 20.4076 12.8333 18.75C12.8333 17.0924 13.4918 15.5027 14.6639 14.3306C15.836 13.1585 17.4257 12.5 19.0833 12.5ZM42 54.1667H12.8333L29.5 33.3333L35.75 41.6667L48.25 25L71.1667 54.1667H42Z" fill="#0066FF"/>
</svg>
